<svg width="90" height="62" viewBox="0 0 90 62" fill="none" xmlns="http://www.w3.org/2000/svg">
<path d="M88.7344 40.2246C88.7148 40.2637 88.5977 40.4297 88.3828 40.7227C88.168 41.0156 87.8555 41.377 87.4453 41.8066C87.0547 42.2168 86.5566 42.666 85.9512 43.1543C85.3652 43.623 84.6621 44.0625 83.8418 44.4727C83.041 44.8633 82.1328 45.1953 81.1172 45.4688C80.1016 45.7422 78.9785 45.8789 77.748 45.8789C75.834 45.8789 74.0371 45.6348 72.3574 45.1465C70.6777 44.6777 69.0566 44.0723 67.4941 43.3301C65.9512 42.5879 64.4277 41.7676 62.9238 40.8691C61.4199 39.9707 59.8867 39.0918 58.3242 38.2324C57.3672 39.834 56.2637 41.1426 55.0137 42.1582C53.7832 43.1543 52.4941 43.9355 51.1465 44.502C49.8184 45.0684 48.4902 45.4492 47.1621 45.6445C45.8535 45.8594 44.6426 45.9668 43.5293 45.9668C42.4551 45.9668 41.3613 45.8496 40.248 45.6152C39.1543 45.4004 38.1582 45.0391 37.2598 44.5312C36.3809 44.0039 35.6582 43.3203 35.0918 42.4805C34.5254 41.6406 34.2422 40.5957 34.2422 39.3457C34.2422 38.1738 34.5156 37.1191 35.0625 36.1816C35.5898 35.2246 36.3223 34.4141 37.2598 33.75C38.2168 33.0859 39.3398 32.5781 40.6289 32.2266C41.918 31.8555 43.3047 31.6699 44.7891 31.6699C45.9023 31.6699 47.0059 31.7676 48.0996 31.9629C49.2129 32.1582 50.2969 32.4219 51.3516 32.7539C52.4062 33.0859 53.4316 33.4668 54.4277 33.8965C55.4238 34.3066 56.3613 34.7266 57.2402 35.1562C57.3574 34.8047 57.4551 34.4531 57.5332 34.1016C57.6309 33.75 57.709 33.3691 57.7676 32.959C57.8457 32.5293 57.8945 32.0605 57.9141 31.5527C57.9531 31.0254 57.9727 30.4199 57.9727 29.7363C57.9727 29.0918 57.9531 28.4766 57.9141 27.8906C57.8945 27.3047 57.8652 26.6699 57.8262 25.9863C57.8066 25.2832 57.7773 24.502 57.7383 23.6426C57.7188 22.7637 57.709 21.7188 57.709 20.5078C57.709 17.7148 57.9824 15.1758 58.5293 12.8906C59.0762 10.5859 59.8867 8.61328 60.9609 6.97266C62.0352 5.33203 63.373 4.0625 64.9746 3.16406C66.5762 2.24609 68.4414 1.78711 70.5703 1.78711C71.8594 1.78711 73.0801 1.99219 74.2324 2.40234C75.4043 2.8125 76.4297 3.39844 77.3086 4.16016C78.207 4.92188 78.9102 5.83008 79.418 6.88477C79.9453 7.93945 80.209 9.11133 80.209 10.4004C80.209 11.1035 80.1113 11.8359 79.916 12.5977C79.7207 13.3594 79.4473 14.0625 79.0957 14.707C78.7637 15.332 78.373 15.8496 77.9238 16.2598C77.4941 16.6699 77.0352 16.875 76.5469 16.875C76.2734 16.875 76.0293 16.7969 75.8145 16.6406C75.5996 16.4844 75.4922 16.2402 75.4922 15.9082C75.4922 15.6738 75.541 15.4785 75.6387 15.3223C75.7559 15.1465 75.8926 14.9902 76.0488 14.8535C76.6152 14.3457 77.0742 13.7207 77.4258 12.9785C77.7969 12.2363 77.9824 11.377 77.9824 10.4004C77.9824 9.42383 77.7773 8.54492 77.3672 7.76367C76.9766 6.96289 76.4395 6.28906 75.7559 5.74219C75.0918 5.17578 74.3105 4.74609 73.4121 4.45312C72.5332 4.14062 71.6055 3.98438 70.6289 3.98438C68.793 3.98438 67.2012 4.38477 65.8535 5.18555C64.5059 5.98633 63.3926 7.11914 62.5137 8.58398C61.6348 10.0293 60.9805 11.7871 60.5508 13.8574C60.1406 15.9082 59.9355 18.1934 59.9355 20.7129C59.9355 21.9238 59.9453 22.9883 59.9648 23.9062C60.0039 24.8242 60.0332 25.6641 60.0527 26.4258C60.0918 27.1875 60.1211 27.9102 60.1406 28.5938C60.1797 29.2578 60.1992 29.9414 60.1992 30.6445C60.1992 31.0547 60.1797 31.5039 60.1406 31.9922C60.1016 32.4609 60.043 32.9492 59.9648 33.457C59.8867 33.9453 59.7793 34.4336 59.6426 34.9219C59.5254 35.3906 59.3887 35.8203 59.2324 36.2109C60.7168 36.9922 62.1816 37.8223 63.627 38.7012C65.0723 39.5801 66.5371 40.3906 68.0215 41.1328C69.5254 41.8555 71.0684 42.4609 72.6504 42.9492C74.252 43.418 75.9414 43.6523 77.7188 43.6523C79.2812 43.6523 80.6289 43.418 81.7617 42.9492C82.9141 42.4805 83.8613 41.9629 84.6035 41.3965C85.3652 40.8105 85.9316 40.2832 86.3027 39.8145C86.6738 39.3262 86.8594 39.0723 86.8594 39.0527C87.0742 38.7012 87.3867 38.5254 87.7969 38.5254C88.1289 38.5254 88.3926 38.6426 88.5879 38.877C88.8027 39.1113 88.9102 39.3652 88.9102 39.6387C88.9102 39.8535 88.8516 40.0488 88.7344 40.2246ZM56.3906 37.1484C55.5508 36.7383 54.6621 36.3379 53.7246 35.9473C52.8066 35.5371 51.8594 35.1758 50.8828 34.8633C49.9062 34.5508 48.9004 34.3066 47.8652 34.1309C46.8496 33.9355 45.834 33.8379 44.8184 33.8379C43.666 33.8379 42.582 33.9648 41.5664 34.2188C40.5508 34.4531 39.6621 34.8047 38.9004 35.2734C38.1387 35.7422 37.5332 36.3086 37.084 36.9727C36.6543 37.6367 36.4395 38.3887 36.4395 39.2285C36.4395 40.0098 36.6348 40.6934 37.0254 41.2793C37.416 41.8457 37.9336 42.3242 38.5781 42.7148C39.2422 43.0859 40.0039 43.3691 40.8633 43.5645C41.7227 43.7402 42.6211 43.8281 43.5586 43.8281C44.6914 43.8281 45.8633 43.7402 47.0742 43.5645C48.2852 43.3691 49.457 43.0273 50.5898 42.5391C51.7227 42.0312 52.7871 41.3477 53.7832 40.4883C54.7793 39.6094 55.6484 38.4961 56.3906 37.1484Z" fill="red"/>
<path d="M27.2363 9.11133C26.9434 9.11133 26.6895 9.21875 26.4746 9.43359C26.2402 9.62891 26.123 9.89258 26.123 10.2246C26.123 10.6543 26.3086 10.9766 26.6797 11.1914C26.7383 11.2305 27.002 11.416 27.4707 11.748C27.9199 12.0801 28.418 12.6172 28.9648 13.3594C29.5117 14.1016 30.0391 15.0879 30.5469 16.3184C31.0547 17.5293 31.377 19.0332 31.5137 20.8301C31.5527 21.1426 31.582 21.4551 31.6016 21.7676C31.6016 22.0801 31.6113 22.3926 31.6309 22.7051C31.2793 22.666 30.918 22.6367 30.5469 22.6172C30.1562 22.5781 29.7461 22.5586 29.3164 22.5586C27.9102 22.5586 26.5527 22.7148 25.2441 23.0273C23.9355 23.3398 22.7344 23.7891 21.6406 24.375C18.8086 23.2422 16.6406 21.7383 15.1367 19.8633C13.6328 17.9883 12.8809 15.8984 12.8809 13.5938C12.8809 11.875 13.3105 10.3516 14.1699 9.02344C15.0293 7.67578 16.2402 6.54297 17.8027 5.625C19.3457 4.70703 21.2012 4.00391 23.3691 3.51562C25.5176 3.02734 27.8809 2.7832 30.459 2.7832C32.7051 2.7832 35 2.95898 37.3438 3.31055C39.668 3.64258 41.9238 4.15039 44.1113 4.83398C46.2793 5.51758 48.3203 6.36719 50.2344 7.38281C52.1484 8.39844 53.8184 9.57031 55.2441 10.8984C56.6699 12.207 57.793 13.6719 58.6133 15.293C59.4336 16.9141 59.8438 18.6719 59.8438 20.5664C59.8438 21.9727 59.5996 23.2129 59.1113 24.2871C58.623 25.3418 57.9785 26.2305 57.1777 26.9531C56.3574 27.6562 55.4199 28.1934 54.3652 28.5645C53.3105 28.916 52.207 29.0918 51.0547 29.0918C49.6875 29.0918 48.4863 28.9551 47.4512 28.6816C46.416 28.4082 45.5469 28.1152 44.8438 27.8027C44.1406 27.4707 43.6133 27.168 43.2617 26.8945C42.8906 26.6016 42.6855 26.4355 42.6465 26.3965C42.5098 26.2988 42.3535 26.1914 42.1777 26.0742C42.002 25.9375 41.8164 25.8691 41.6211 25.8691C41.3281 25.8691 41.0742 25.9766 40.8594 26.1914C40.6445 26.3867 40.5371 26.6406 40.5371 26.9531C40.5371 27.2656 40.6445 27.5195 40.8594 27.7148C40.8984 27.7539 41.1523 27.9688 41.6211 28.3594C42.0703 28.7305 42.7246 29.1309 43.584 29.5605C44.4434 29.9902 45.498 30.3809 46.748 30.7324C47.9785 31.084 49.3945 31.2598 50.9961 31.2598C52.4805 31.2598 53.8965 31.0156 55.2441 30.5273C56.5723 30.0391 57.7441 29.3359 58.7598 28.418C59.7754 27.5 60.5859 26.3867 61.1914 25.0781C61.7773 23.75 62.0703 22.2461 62.0703 20.5664C62.0703 18.7109 61.6895 16.9336 60.9277 15.2344C60.166 13.5156 59.0918 11.9141 57.7051 10.4297C56.3184 8.94531 54.6582 7.60742 52.7246 6.41602C50.791 5.20508 48.6621 4.16992 46.3379 3.31055C43.9941 2.45117 41.4844 1.78711 38.8086 1.31836C36.1328 0.849609 33.3691 0.615234 30.5176 0.615234C27.6074 0.615234 24.9414 0.908203 22.5195 1.49414C20.0781 2.06055 17.9785 2.89063 16.2207 3.98438C14.4629 5.05859 13.0957 6.38672 12.1191 7.96875C11.1426 9.53125 10.6543 11.3086 10.6543 13.3008C10.6543 15.9375 11.416 18.3301 12.9395 20.4785C14.4434 22.627 16.6602 24.4141 19.5898 25.8398C18.5156 26.7578 17.6758 27.832 17.0703 29.0625C16.4453 30.2734 15.9863 31.5039 15.6934 32.7539C15.3809 34.0039 15.1855 35.1953 15.1074 36.3281C15.0098 37.4609 14.9414 38.4082 14.9023 39.1699C14.8633 40.2832 14.7656 41.1914 14.6094 41.8945C14.4336 42.5781 14.1992 43.1152 13.9062 43.5059C13.5938 43.8965 13.2227 44.1699 12.793 44.3262C12.3438 44.4629 11.8066 44.5312 11.1816 44.5312C10.3027 44.5312 9.49219 44.3262 8.75 43.916C8.00781 43.4863 7.34375 42.959 6.75781 42.334C6.15234 41.709 5.625 41.0352 5.17578 40.3125C4.70703 39.5703 4.31641 38.8867 4.00391 38.2617C3.69141 37.6172 3.45703 37.0898 3.30078 36.6797C3.125 36.25 3.03711 36.0254 3.03711 36.0059C2.8418 35.5176 2.5 35.2734 2.01172 35.2734C1.67969 35.2734 1.41602 35.3906 1.2207 35.625C1.00586 35.8398 0.898438 36.0938 0.898438 36.3867C0.898438 36.4844 0.917969 36.6113 0.957031 36.7676C0.976562 36.8457 1.09375 37.1484 1.30859 37.6758C1.50391 38.1836 1.79687 38.8086 2.1875 39.5508C2.57813 40.2734 3.06641 41.0547 3.65234 41.8945C4.23828 42.7344 4.92188 43.5156 5.70312 44.2383C6.46484 44.9414 7.33398 45.5273 8.31055 45.9961C9.26758 46.4648 10.332 46.6992 11.5039 46.6992C12.5391 46.6992 13.4082 46.5332 14.1113 46.2012C14.7949 45.8691 15.3613 45.3906 15.8105 44.7656C16.2402 44.1211 16.5625 43.3496 16.7773 42.4512C16.9727 41.5332 17.0898 40.4883 17.1289 39.3164C17.1484 38.8281 17.1777 38.252 17.2168 37.5879C17.2559 36.9043 17.334 36.1914 17.4512 35.4492C17.5488 34.6875 17.6953 33.9062 17.8906 33.1055C18.0859 32.3047 18.3594 31.5234 18.7109 30.7617C19.0625 30 19.502 29.2773 20.0293 28.5938C20.5566 27.9102 21.2012 27.3145 21.9629 26.8066C23.4668 27.3145 25.0293 27.7148 26.6504 28.0078C28.252 28.2812 29.9121 28.4277 31.6309 28.4473V29.3262C31.6309 31.7285 31.875 33.9844 32.3633 36.0938C32.832 38.1836 33.6035 40.0098 34.6777 41.5723C35.752 43.1152 37.1387 44.3262 38.8379 45.2051C40.5371 46.1035 42.6074 46.5527 45.0488 46.5527C46.2598 46.5527 47.4609 46.3867 48.6523 46.0547C49.8242 45.7422 50.9277 45.3027 51.9629 44.7363C52.9785 44.1699 53.8965 43.5059 54.7168 42.7441C55.5176 41.9629 56.1523 41.123 56.6211 40.2246C56.7188 40.0684 56.7676 39.8926 56.7676 39.6973C56.7676 39.4238 56.6699 39.1797 56.4746 38.9648C56.2598 38.7305 55.9863 38.6133 55.6543 38.6133C55.2246 38.6133 54.9023 38.7988 54.6875 39.1699C54.2578 39.9316 53.7012 40.6348 53.0176 41.2793C52.334 41.9238 51.5723 42.4805 50.7324 42.9492C49.873 43.3984 48.9648 43.75 48.0078 44.0039C47.0312 44.2578 46.0449 44.3848 45.0488 44.3848C43.0371 44.3848 41.3184 44.0332 39.8926 43.3301C38.4668 42.6074 37.3047 41.5918 36.4062 40.2832C35.5078 38.9551 34.8535 37.373 34.4434 35.5371C34.0332 33.6816 33.8281 31.6113 33.8281 29.3262V28.1836C34.4727 27.9688 34.9902 27.666 35.3809 27.2754C35.7715 26.8848 35.9668 26.4062 35.9668 25.8398C35.9668 25.2734 35.7812 24.7754 35.4102 24.3457C35.0391 23.916 34.5117 23.5645 33.8281 23.291C33.8281 22.8418 33.8184 22.4023 33.7988 21.9727C33.7793 21.5234 33.75 21.084 33.7109 20.6543C33.5938 19.248 33.3789 17.9883 33.0664 16.875C32.7344 15.7617 32.3535 14.7852 31.9238 13.9453C31.4746 13.1055 31.0156 12.3926 30.5469 11.8066C30.0781 11.2207 29.6387 10.7422 29.2285 10.3711C28.8184 9.98047 28.4766 9.69727 28.2031 9.52148C27.9297 9.3457 27.7734 9.24805 27.7344 9.22852C27.5977 9.15039 27.4316 9.11133 27.2363 9.11133ZM24.4824 25.459C24.8145 25.3613 25.1367 25.2637 25.4492 25.166C25.7617 25.0684 26.1035 24.9902 26.4746 24.9316C26.8262 24.8535 27.2266 24.7949 27.6758 24.7559C28.1055 24.6973 28.6035 24.668 29.1699 24.668C30.1855 24.668 31.0156 24.7266 31.6602 24.8438V24.873V26.2793C30.4688 26.2793 29.248 26.2109 27.998 26.0742C26.7285 25.9375 25.5566 25.7324 24.4824 25.459Z" fill="red"/>
</svg>
